<?xml version="1.0" encoding="utf-8"?>
<!-- Generator: Adobe Illustrator 24.3.0, SVG Export Plug-In . SVG Version: 6.00 Build 0)  -->
<svg version="1.1" id="Calque_1" xmlns="http://www.w3.org/2000/svg" xmlns:xlink="http://www.w3.org/1999/xlink" x="0px" y="0px"
	 viewBox="0 0 414 189" style="enable-background:new 0 0 414 189;" xml:space="preserve">
<style type="text/css">
	.st0{fill:currentColor;}
	.st1{clip-path:url(#SVGID_2_);}
	.st2{clip-path:url(#SVGID_4_);}
	.st3{clip-path:url(#SVGID_6_);}
</style>
<g id="e69601ebd4">
	<g>
		<g>
			<g transform="translate(113.079149, 243.490047)">
				<path class="st0" d="M14.1-137.4l-3.5,1.1c0.1,0.5,0.1,1.1,0.1,1.6s0,1,0,1.6v0.1c0,6.3-1.7,12-5.1,17.1c-3.4,5-7.7,8.8-13,11.4
					c-2.1,0.9-4,2.1-5.8,3.5c-1.8,1.4-3.5,3.1-5,4.9l-1.4,1.5c-0.3,0.4-0.6,0.5-1.1,0.5c-0.4,0-0.8-0.2-1.1-0.5l-1.4-1.5
					c-1.4-1.8-3.1-3.4-5-4.7c-1.9-1.3-3.9-2.6-5.9-3.8c-4-2.2-7-4.7-9.2-7.2c-2.2-2.6-3.7-5-4.7-7.4c-1-2.3-1.8-4.3-2.4-6
					c-1.6,3.8-3.7,7.5-6.2,11.1c-2.5,3.6-5.3,6.8-8.4,9.7c-3.3,3.1-7,5.6-11,7.5c-4,1.9-8.2,2.9-12.6,2.9c-3.4,0-6.1-0.7-8.1-2.1
					c-2-1.4-3.4-3.2-4.2-5.4c-0.8-2.2-1.3-4.5-1.3-7c0-2.7,0.3-5.5,0.9-8.4c0.6-2.9,1.3-5.4,2-7.5c0.8-2,1.4-2.9,2-2.8
					c4.4,1.1,8.3,1.8,11.8,2c3.4,0.3,6.5,0.4,9.1,0.3c4.2-0.3,7.7-1,10.3-2.2c2.7-1.2,5-2.9,6.9-4.9c1.9-2.1,3.9-4.5,5.8-7.2
					c1.9-2.8,4.1-5.8,6.7-9.2c2.6-3.4,5.8-7,9.8-10.8c4-3.8,9-7.7,15.2-11.8c0.4-0.4,0.9-0.6,1.4-0.6c0.5-0.1,0.9,0.1,1.3,0.6
					c2.2,2.5,4.2,4.5,6.1,5.9c1.9,1.4,3.8,2.7,5.8,3.7c4.2,2,7.9,4.8,11,8.5c3.1,3.7,5.2,7.9,6.4,12.6c0.2,0.8,0.6,1.5,1.2,2.1
					C11.8-137.7,12.8-137.4,14.1-137.4z M-24.6-140.2c0.7,0,1.4-0.4,2-1.1c0.6-0.7,1-1.4,1-1.9s-0.3-1.2-1-1.9
					c-0.6-0.7-1.3-1.1-2-1.1c-0.6,0-1.3,0.4-2,1.1c-0.7,0.7-1,1.4-1,1.9s0.3,1.2,1,1.9C-25.8-140.6-25.2-140.2-24.6-140.2z"/>
			</g>
		</g>
		<g>
			<g transform="translate(199.310958, 243.490047)">
				<path class="st0" d="M-34.5-102.9H-39c-2.2,0-4.5-0.2-6.6-0.6c-2.2-0.4-4.2-1.6-6-3.5c-1.8-1.9-3.5-5.3-4.8-9.9
					c0,5.8-0.4,9.6-1.3,11.4c-0.8,1.8-2.5,2.7-5.1,2.7c-4.1,0-7.8-0.9-11.2-2.8c-3.4-1.9-6.1-4.5-8.2-7.8c-2.1-3.3-3.1-7.1-3.1-11.3
					v-12.6h20.4c2.3,0,3.7-0.5,4.2-1.4c0.5-0.9,0.7-2.1,0.7-3.6c0-2.6-0.5-5.2-1.4-7.9c-0.9-2.7-2.1-5.3-3.3-7.9
					c-1.2-2.6-2.4-5.3-3.3-7.9c-0.9-2.7-1.4-5.3-1.4-7.9c0-2.8,0.6-5.3,1.7-7.5c1.1-2.2,2.7-4.5,4.6-6.8c1.9-2.3,4.2-5.1,6.6-8.1
					c2.5-3.1,5.1-6.8,7.8-11.1c0.2-0.3,0.4-0.3,0.8-0.1c0.4,0.2,0.4,0.5,0.3,0.8c-1.3,2.2-2.2,4.5-2.7,7c-0.5,2.5-0.8,5.6-0.9,9.3
					c0,3.7-0.1,8.4-0.1,14.2v34c0,1.4,0.4,2.6,1.1,3.6c0.7,0.9,2.2,1.4,4.3,1.4L-34.5-102.9z"/>
			</g>
		</g>
		<g>
			<g transform="translate(220.108042, 243.490047)">
				<path class="st0" d="M-51.1-179.7l-9.2-9.2c-1.2-1.2-1.8-2.7-1.8-4.4c0-1.7,0.6-3.1,1.8-4.3l9.3-9.2l9.3,9.3
					c1.2,1.2,1.8,2.6,1.8,4.2s-0.6,3-1.8,4.2L-51.1-179.7z M-27.8-179.7l-9.2-9.2c-1.2-1.2-1.8-2.7-1.8-4.4c0-1.7,0.6-3.1,1.8-4.3
					l9.3-9.2l9.3,9.3c1.2,1.2,1.8,2.6,1.8,4.2s-0.6,3-1.8,4.2L-27.8-179.7z M-14.4-152.9v16.4c0,3.5-0.4,7.2-1.1,11.2
					c-0.8,3.9-2,7.6-3.6,11c-1.6,3.4-3.8,6.1-6.5,8.3s-6,3.2-9.9,3.2h-19.6c-6.3,0-11.1-1.6-14.5-4.7c-3.3-3.1-5.6-7.3-6.8-12.5
					c-1.2-5.2-1.8-11-1.8-17.3h18.8c-1.7-2.1-3-4.4-4-7.1c-0.9-2.7-1.4-5.5-1.4-8.5c0-5.1,1.3-9.7,4-13.8c2.7-4.2,6.2-7.2,10.6-9.2
					c3.4-1.5,6.3-3.8,8.6-6.8l0.8-0.9c0.8-0.8,1.6-0.8,2.3,0l0.8,0.9c2.4,3,5.3,5.2,8.7,6.8c4.3,2,7.8,5.1,10.5,9.2
					C-15.8-162.6-14.4-158-14.4-152.9z M-44.5-140.9c0.7,0,1.4-0.4,2-1.1c0.6-0.7,1-1.4,1-1.9c0-0.5-0.3-1.2-1-1.9
					c-0.6-0.7-1.3-1.1-2-1.1c-0.6,0-1.3,0.4-2,1.1c-0.7,0.7-1,1.4-1,1.9c0,0.5,0.3,1.2,1,1.9C-45.8-141.2-45.1-140.9-44.5-140.9z"/>
			</g>
		</g>
	</g>
	<g>
		<path class="st0" d="M280.4,129.9c-1.2,0-2.2-1-2.2-2.2V62.6H263v53.5c0,1.2-1,2.2-2.2,2.2c-1.2,0-2.2-1-2.2-2.2V60.3
			c0-1.2,1-2.2,2.2-2.2h19.7c1.2,0,2.2,1,2.2,2.2v67.4C282.6,129,281.6,129.9,280.4,129.9z"/>
		<path class="st0" d="M280.4,153.7h-19.7c-1.2,0-2.2-1-2.2-2.2v-21.6c0-1.2,1-2.2,2.2-2.2c1.2,0,2.2,1,2.2,2.2v19.4h15.3v-8.9
			c0-1.2,1-2.2,2.2-2.2c1.2,0,2.2,1,2.2,2.2v11.1C282.6,152.7,281.6,153.7,280.4,153.7z"/>
		<path class="st0" d="M270.6,170.9c-0.8,0-1.5-0.4-1.9-1.1l-9.9-17.2c-0.4-0.7-0.4-1.5,0-2.2c0.4-0.7,1.1-1.1,1.9-1.1h19.7
			c0.8,0,1.5,0.4,1.9,1.1c0.4,0.7,0.4,1.5,0,2.2l-9.9,17.2C272.1,170.5,271.4,170.9,270.6,170.9z M264.6,153.7l6,10.6l6-10.6H264.6z
			"/>
		<path class="st0" d="M280.4,62.6h-19.7c-1.2,0-2.2-1-2.2-2.2V48.2c0-1.2,1-2.2,2.2-2.2h19.7c1.2,0,2.2,1,2.2,2.2v12.1
			C282.7,61.6,281.7,62.6,280.4,62.6z M263,58.1h15.3v-7.7H263V58.1z"/>
		<path class="st0" d="M276.3,50.5h-11.3c-1.2,0-2.2-1-2.2-2.2v-8.7c0-1.2,1-2.2,2.2-2.2h11.3c1.2,0,2.2,1,2.2,2.2v8.7
			C278.5,49.5,277.5,50.5,276.3,50.5z M267.1,46h6.9v-4.2h-6.9V46z"/>
		<path class="st0" d="M287.8,82.3c-1.2,0-2.2-1-2.2-2.2V65.3c0-1.5-1.2-2.7-2.7-2.7h-2.5c-1.2,0-2.2-1-2.2-2.2s1-2.2,2.2-2.2h2.5
			c3.9,0,7.1,3.2,7.1,7.1V80C290,81.3,289.1,82.3,287.8,82.3z"/>
		<g>
			<defs>
				<rect id="SVGID_1_" x="291.8" y="145.5" width="51.3" height="38.3"/>
			</defs>
			<clipPath id="SVGID_2_">
				<use xlink:href="#SVGID_1_"  style="overflow:visible;"/>
			</clipPath>
			<g class="st1">
				<path class="st0" d="M322.6,184c-0.8,0-1.5-0.2-2.2-0.6l-26-14.2c-1.1-0.6-1.9-1.6-2.2-2.8c-0.4-1.2-0.2-2.5,0.4-3.6l8.4-15.4
					c0.6-1.1,1.9-1.5,3-0.9c1.1,0.6,1.5,1.9,0.9,3l-8.4,15.4c0,0,0.1,0.3,0.1,0.3l26,14.2c0.1,0.1,0.3,0,0.3-0.1l14-25.7
					c0.6-1.1,1.9-1.5,3-0.9c1.1,0.6,1.5,1.9,0.9,3l-14,25.7c-0.6,1.1-1.6,1.9-2.8,2.2C323.5,183.9,323,184,322.6,184z"/>
			</g>
		</g>
		<g>
			<defs>
				<rect id="SVGID_3_" x="305.2" y="18.3" width="99.8" height="129.5"/>
			</defs>
			<clipPath id="SVGID_4_">
				<use xlink:href="#SVGID_3_"  style="overflow:visible;"/>
			</clipPath>
			<g class="st2">
				<path class="st0" d="M344.9,145.8c-0.4,0-0.7-0.1-1.1-0.3c-1.1-0.6-1.5-1.9-0.9-3l56.8-103.8c0.1-0.1,0-0.3-0.1-0.3l-26-14.2
					l-0.3,0.1l-62.9,115.1c-0.6,1.1-1.9,1.5-3,0.9c-1.1-0.6-1.5-1.9-0.9-3l62.9-115.1c0.6-1.1,1.6-1.9,2.8-2.2
					c1.2-0.4,2.5-0.2,3.6,0.4l26,14.2c1.1,0.6,1.9,1.6,2.2,2.8c0.3,1.2,0.2,2.5-0.4,3.5l-56.8,103.8
					C346.4,145.4,345.7,145.8,344.9,145.8z"/>
			</g>
		</g>
		<path class="st0" d="M396.3,51.9c-0.4,0-0.7-0.1-1.1-0.3l-6-3.3c-1.1-0.6-1.5-1.9-0.9-3c0.6-1.1,1.9-1.5,3-0.9l6,3.3
			c1.1,0.6,1.5,1.9,0.9,3C397.8,51.5,397,51.9,396.3,51.9z"/>
		<path class="st0" d="M389.7,64c-0.4,0-0.7-0.1-1.1-0.3l-9.1-5c-1.1-0.6-1.5-1.9-0.9-3c0.6-1.1,1.9-1.5,3-0.9l9.1,5
			c1.1,0.6,1.5,1.9,0.9,3C391.2,63.6,390.4,64,389.7,64z"/>
		<path class="st0" d="M383,76.1c-0.4,0-0.7-0.1-1.1-0.3l-6-3.3c-1.1-0.6-1.5-1.9-0.9-3c0.6-1.1,1.9-1.5,3-0.9l6,3.3
			c1.1,0.6,1.5,1.9,0.9,3C384.6,75.7,383.8,76.1,383,76.1z"/>
		<path class="st0" d="M376.4,88.2c-0.4,0-0.7-0.1-1.1-0.3l-9.1-5c-1.1-0.6-1.5-1.9-0.9-3c0.6-1.1,1.9-1.5,3-0.9l9.1,5
			c1.1,0.6,1.5,1.9,0.9,3C378,87.8,377.2,88.2,376.4,88.2z"/>
		<path class="st0" d="M369.8,100.3c-0.4,0-0.7-0.1-1.1-0.3l-6-3.3c-1.1-0.6-1.5-1.9-0.9-3c0.6-1.1,1.9-1.5,3-0.9l6,3.3
			c1.1,0.6,1.5,1.9,0.9,3C371.4,99.9,370.6,100.3,369.8,100.3z"/>
		<path class="st0" d="M363.2,112.4c-0.4,0-0.7-0.1-1.1-0.3l-9.1-5c-1.1-0.6-1.5-1.9-0.9-3c0.6-1.1,1.9-1.5,3-0.9l9.1,5
			c1.1,0.6,1.5,1.9,0.9,3C364.8,111.9,364,112.4,363.2,112.4z"/>
		<path class="st0" d="M356.6,124.4c-0.4,0-0.7-0.1-1.1-0.3l-6-3.3c-1.1-0.6-1.5-1.9-0.9-3c0.6-1.1,1.9-1.5,3-0.9l6,3.3
			c1.1,0.6,1.5,1.9,0.9,3C358.1,124,357.4,124.4,356.6,124.4z"/>
		<path class="st0" d="M350,136.5c-0.4,0-0.7-0.1-1.1-0.3l-9.1-5c-1.1-0.6-1.5-1.9-0.9-3c0.6-1.1,1.9-1.5,3-0.9l9.1,5
			c1.1,0.6,1.5,1.9,0.9,3C351.5,136.1,350.8,136.5,350,136.5z"/>
		<path class="st0" d="M345.3,151.5c-14.7,0-30.9-2.8-47.1-8.1c-21.7-7.2-40.8-18.1-53.7-30.8c-13.3-13.1-18.5-26.6-14.8-38.1
			c3-9,11.3-15.8,24-19.6c1.2-0.3,2.4,0.3,2.8,1.5c0.3,1.2-0.3,2.4-1.5,2.8c-11.2,3.3-18.5,9.1-21,16.7c-3.2,9.8,1.6,21.7,13.7,33.5
			c12.4,12.2,30.9,22.8,52,29.8c21.1,6.9,42.2,9.4,59.5,7c16.7-2.4,27.7-9.1,30.9-18.8c3-9.2-1.2-20.5-11.9-31.7
			c-0.8-0.9-0.8-2.3,0.1-3.1s2.3-0.8,3.1,0.1c11.9,12.5,16.5,25.3,12.9,36.1c-3.8,11.4-16,19.2-34.5,21.8
			C355.1,151.2,350.3,151.5,345.3,151.5z"/>
		<path class="st0" d="M308.1,120.6c-0.7,0-1.4-0.3-1.8-0.9l-5.5-7.5l-9.2,1.4c-0.8,0.1-1.6-0.2-2.1-0.8c-0.5-0.6-0.6-1.5-0.3-2.2
			l32.4-77.8c0.5-1.1,1.8-1.7,2.9-1.2l16.8,7c1.1,0.5,1.7,1.8,1.2,2.9l-32.4,77.8c-0.3,0.7-1,1.2-1.8,1.3
			C308.3,120.6,308.2,120.6,308.1,120.6z M301.8,107.6c0.7,0,1.4,0.3,1.8,0.9l4,5.4l30-72.1l-12.7-5.3l-30,72.1l6.6-1
			C301.6,107.6,301.7,107.6,301.8,107.6z"/>
		<path class="st0" d="M293.6,131.8c-0.3,0-0.6-0.1-0.9-0.2c-0.7-0.3-1.2-1-1.4-1.8l-2.3-18.2c-0.1-1.2,0.7-2.3,1.9-2.5l10.5-1.6
			c0.8-0.1,1.6,0.2,2.1,0.9l6.3,8.6c0.7,1,0.5,2.3-0.4,3.1l-14.5,11.2C294.5,131.7,294.1,131.8,293.6,131.8z M293.8,113.3l1.5,12.2
			l9.8-7.5l-4.2-5.8L293.8,113.3z"/>
		<g>
			<defs>
				<rect id="SVGID_5_" x="323.1" y="9.8" width="26.8" height="26.4"/>
			</defs>
			<clipPath id="SVGID_6_">
				<use xlink:href="#SVGID_5_"  style="overflow:visible;"/>
			</clipPath>
			<g class="st3">
				<path class="st0" d="M344,34.4c-0.3,0-0.6-0.1-0.8-0.2l-16.8-7c-1.1-0.5-1.7-1.8-1.2-2.9l2.7-6.6c2.2-5.4,8.4-7.9,13.8-5.7
					l1.4,0.6c5.4,2.2,7.9,8.4,5.7,13.8l-2.7,6.6c-0.2,0.5-0.7,1-1.2,1.2C344.6,34.4,344.3,34.4,344,34.4z M330.1,24l12.7,5.3
					l1.9-4.5c0.6-1.5,0.6-3.2,0-4.7c-0.6-1.5-1.8-2.7-3.3-3.3l-1.4-0.6c-3.1-1.3-6.7,0.2-8,3.3L330.1,24z"/>
			</g>
		</g>
		<path class="st0" d="M340.5,42.8c-0.3,0-0.6-0.1-0.9-0.2l-16.8-7c-1.1-0.5-1.7-1.8-1.2-2.9l3.5-8.4c0.2-0.5,0.7-1,1.2-1.2
			c0.5-0.2,1.2-0.2,1.7,0l16.8,7c1.1,0.5,1.7,1.8,1.2,2.9l-3.5,8.4c-0.2,0.5-0.7,1-1.2,1.2C341.1,42.8,340.8,42.8,340.5,42.8z
			 M326.6,32.4l12.7,5.3l1.8-4.3l-12.7-5.3L326.6,32.4z"/>
		<path class="st0" d="M292.9,133.8c-0.3,0-0.5,0-0.8-0.1c-1.2-0.4-1.7-1.7-1.3-2.8l0.7-2c0.4-1.1,1.7-1.7,2.8-1.3
			c1.1,0.4,1.7,1.7,1.3,2.8l-0.7,2C294.6,133.3,293.8,133.8,292.9,133.8z"/>
		<path class="st0" d="M301.7,112c-0.3,0-0.6-0.1-0.8-0.2c-1.1-0.5-1.7-1.8-1.2-2.9L330,36.2c0.5-1.1,1.8-1.7,2.9-1.2
			c1.1,0.5,1.7,1.8,1.2,2.9l-30.3,72.7C303.4,111.5,302.6,112,301.7,112z"/>
	</g>
</g>
</svg>