<?xml version="1.0" encoding="utf-8"?>
<!-- Generator: Adobe Illustrator 24.3.0, SVG Export Plug-In . SVG Version: 6.00 Build 0)  -->
<svg version="1.1" id="Calque_1" xmlns="http://www.w3.org/2000/svg" xmlns:xlink="http://www.w3.org/1999/xlink" x="0px" y="0px"
	 viewBox="0 0 566.9 141.7" style="enable-background:new 0 0 566.9 141.7;" xml:space="preserve">
<g transform="translate(0.000000,1024.000000) scale(0.100000,-0.100000)">
	<g>
		<path d="M1264.9,10166.9c-37-29-91-50-130-50c-48,0-97-11-97-21c0-5,21-20,48-33c26-14,54-30,62-35c11-8-7-32-96-123
			c-121-125-481-548-610-716c-117-154-224-305-220-310c2-2,15,3,28,11c12,9,60,28,105,42c71,24,86,26,115,15c78-28,334-21,353,10
			c3,4-7,33-21,64c-30,67-41,170-25,245c36,169,189,327,351,361c55,12,60,15,54,34c-12,38-56,120-80,149c-13,16-24,33-24,39
			s21,44,46,84l46,75l22-30c11-16,29-43,38-60s21-31,26-31s12,31,14,68c4,52,13,84,37,129c18,34,31,69,29,80
			C1330.9,10189.9,1295.9,10190.9,1264.9,10166.9z"/>
		<path d="M598.9,9980.9c75-153,32-335-114-470c-96-90-234-142-344-131c-53,6-53,5-53-22c0-16,7-47,15-70c17-50,77-152,86-149
			c10,4,524,491,681,646c142,139,138,125,52,177c-70,43-176.9,60.9-255,72l-97,6L598.9,9980.9z"/>
		<path d="M333.9,9946.9c-125-84-213-219-238-367c-16-94-11-98,91-98c67,0,86,5,144,33c74,37,148,111,180,182c27,59,29,180,4,227
			c-24,44-56,73-83,73C419.9,9996.9,375.9,9973.9,333.9,9946.9z"/>
		<path d="M1627.9,9501.9v-365h235h235v65v65h-160h-160v300v300h-75h-75V9501.9z"/>
		<path d="M4289.9,9594.9l3-273l29-58c45-92,131-138,260-139c128-1,217,46,262,139l29,58l3,273l3,272h-70h-71v-247
			c0-216-2-252-18-282c-25-50-63-74-125-79c-72-6-121,17-147,69c-18,35-20,60-20,289v250h-71h-70L4289.9,9594.9z"/>
		<path d="M2287.9,9673.9c-57-18-135-103-154-166c-71-241,118-439,356-372c70,20,158,103,158,151c0,17-125,13-141-6
			c-38-45-122-57-176-24c-30,18-63,65-63,90c0,6,66,10,196,10h197l-6,65c-12,124-82,225-175,253
			C2431.9,9689.9,2334.9,9688.9,2287.9,9673.9z M2457.9,9554.9c19-13,40-38,47-55l13-33h-130h-130l11,27c14,38,29,54,64,69
			C2377.9,9582.9,2420.9,9579.9,2457.9,9554.9z"/>
		<path d="M2862.9,9674.9c-61-22-113-73-129-123c-5-17,2-22,54-37c74-22,77-22,85,2c8,26,55,50,98,50s89-34,85-63
			c-3-18-16-23-106-39c-153-27-212-64-230-143c-15-72,11-139,70-174c69-43,184-33,251,20l37,30v-31v-30h65h65v183
			c0,243-16,294-103,339C3055.9,9683.9,2912.9,9693.9,2862.9,9674.9z M3064.9,9344.9c-10-72-72-117-151-109c-48,4-74,64-40,92
			c13,10,158,56,188,58C3066.9,9386.9,3067.9,9367.9,3064.9,9344.9z"/>
		<path d="M3507.9,9675.9c-14-6-37-22-52-36l-28-27v32v32h-70h-70v-270v-270h69h69l4,163c3,130,7,168,21,195c25,46,72,72,130,72h47
			v60v60l-47-1C3553.9,9685.9,3521.9,9680.9,3507.9,9675.9z"/>
		<path d="M3892.9,9671.9c-16-9-38-24-47-32c-17-15-18-14-18,10c0,27-1,27-70,27h-70v-270v-270h70h70v181v181l35,35
			c33,33,39,35,82,30c35-4,53-12,70-32c22-25,23-33,23-211v-184h70h70v208c0,234-4,251-73,306c-34,27-48,31-110,34
			C3942.9,9686.9,3914.9,9682.9,3892.9,9671.9z"/>
		<path d="M5181.9,9667.9c-23-11-47-27-53-38c-9-15-10-13-11,15v32h-70h-70v-370v-370h70h70v126v125l33-25c43-33,102-45,166-35
			c127,20,210,145,199,298c-8,114-64,202-153,242C5310.9,9691.9,5233.9,9691.9,5181.9,9667.9z M5308.9,9553.9c46-30,69-80,69-148
			c0-159-175-221-249-89c-25,45-28,137-7,178C5162.9,9572.9,5242.9,9598.9,5308.9,9553.9z"/>
		<path d="M1111.9,9518.9c-95-33-165-98-212-199c-24-51-27-69-26-153c1-91,20-170,42-170c20,0,102,62,145,110c89,99,147,246,147,373
			c0,53-2,57-22,57C1172.9,9535.9,1139.9,9527.9,1111.9,9518.9z"/>
	</g>
</g>
</svg>
